<svg width="520" height="160" viewBox="0 0 520 160" fill="none" xmlns="http://www.w3.org/2000/svg">
  <defs>
    <linearGradient id="orva-gradient" x1="70" y1="34" x2="432" y2="118" gradientUnits="userSpaceOnUse">
      <stop stop-color="#14B8A6"/>
      <stop offset="0.52" stop-color="#38BDF8"/>
      <stop offset="1" stop-color="#FB923C"/>
    </linearGradient>
    <linearGradient id="orva-accent" x1="0" y1="0" x2="1" y2="1">
      <stop stop-color="#FCD34D"/>
      <stop offset="1" stop-color="#FB7185"/>
    </linearGradient>
  </defs>
  <rect x="10" y="16" width="500" height="128" rx="34" fill="#09111F"/>
  <rect x="11" y="17" width="498" height="126" rx="33" stroke="#334155" stroke-opacity="0.32"/>
  <circle cx="66" cy="49" r="7" fill="url(#orva-accent)"/>

  <path d="M102 52C82.6701 52 67 67.6701 67 87C67 106.33 82.6701 122 102 122C121.33 122 137 106.33 137 87C137 67.6701 121.33 52 102 52ZM102 69C111.941 69 120 77.0589 120 87C120 96.9411 111.941 105 102 105C92.0589 105 84 96.9411 84 87C84 77.0589 92.0589 69 102 69Z" fill="url(#orva-gradient)"/>
  <path d="M161 114V52H178V60.5C186.2 53.5 194.9 50 205.5 50C222.163 50 235.5 61.4 235.5 78H218.5C218.5 71.1 212.4 66.8 204 66.8C195.362 66.8 186.664 71.0493 178 79.548V114H161Z" fill="url(#orva-gradient)"/>
  <path d="M245 52H264L292.5 97.5L321 52H340L303 114H282L245 52Z" fill="url(#orva-gradient)"/>
  <path d="M347 52C328.775 52 314 66.7751 314 85C314 103.225 328.775 118 347 118C356.528 118 364.327 114.83 370 108.5V114H387V85C387 66.7751 372.225 52 354 52H347ZM350.5 68C361.822 68 371 77.1782 371 88.5C371 99.8218 361.822 109 350.5 109C339.178 109 330 99.8218 330 88.5C330 77.1782 339.178 68 350.5 68Z" fill="url(#orva-gradient)"/>
  <path d="M367 103C361.8 107.667 355.967 110 349.5 110C338.546 110 330 101.231 330 89.5C330 77.769 338.546 69 349.5 69C360.454 69 369 77.769 369 89.5V103H367Z" fill="#09111F"/>
</svg>
