<svg width="520" height="160" viewBox="0 0 520 160" fill="none" xmlns="http://www.w3.org/2000/svg">
  <defs>
    <linearGradient id="orva-gradient" x1="70" y1="34" x2="439" y2="119" gradientUnits="userSpaceOnUse">
      <stop stop-color="#14B8A6"/>
      <stop offset="0.52" stop-color="#38BDF8"/>
      <stop offset="1" stop-color="#FB923C"/>
    </linearGradient>
    <linearGradient id="orva-accent" x1="0" y1="0" x2="1" y2="1">
      <stop stop-color="#FCD34D"/>
      <stop offset="1" stop-color="#FB7185"/>
    </linearGradient>
  </defs>
  <rect x="10" y="16" width="500" height="128" rx="34" fill="#09111F"/>
  <rect x="11" y="17" width="498" height="126" rx="33" stroke="rgba(148, 163, 184, 0.18)"/>
  <circle cx="66" cy="49" r="7" fill="url(#orva-accent)"/>
  <path d="M356 48L336 114H354L368 67L382 114H400L420 48H400L390 90L376 48H360L346 90L336 48H356Z" fill="url(#orva-gradient)"/>
  <path d="M102 52C82.6701 52 67 67.6701 67 87C67 106.33 82.6701 122 102 122C121.33 122 137 106.33 137 87C137 67.6701 121.33 52 102 52ZM102 69C111.941 69 120 77.0589 120 87C120 96.9411 111.941 105 102 105C92.0589 105 84 96.9411 84 87C84 77.0589 92.0589 69 102 69Z" fill="url(#orva-gradient)"/>
  <path d="M161 114V52H178V60.5C186.2 53.5 194.9 50 205.5 50C222.163 50 235.5 61.4 235.5 78H218.5C218.5 71.1 212.4 66.8 204 66.8C195.362 66.8 186.664 71.0493 178 79.548V114H161Z" fill="url(#orva-gradient)"/>
  <path d="M245 52H264L292.5 97.5L321 52H340L303 114H282L245 52Z" fill="url(#orva-gradient)"/>
  <path d="M431 52C412.775 52 398 66.7751 398 85C398 103.225 412.775 118 431 118C440.528 118 448.327 114.83 454 108.5V114H471V85C471 66.7751 456.225 52 438 52H431ZM434.5 68C445.822 68 455 77.1782 455 88.5C455 99.8218 445.822 109 434.5 109C423.178 109 414 99.8218 414 88.5C414 77.1782 423.178 68 434.5 68Z" fill="url(#orva-gradient)"/>
  <path d="M451 103C445.8 107.667 439.967 110 433.5 110C422.546 110 414 101.231 414 89.5C414 77.769 422.546 69 433.5 69C444.454 69 453 77.769 453 89.5V103H451Z" fill="#09111F"/>
</svg>
